<svg
   xmlns:dc="http://purl.org/dc/elements/1.1/"
   xmlns:cc="http://creativecommons.org/ns#"
   xmlns:rdf="http://www.w3.org/1999/02/22-rdf-syntax-ns#"
   xmlns:svg="http://www.w3.org/2000/svg"
   xmlns="http://www.w3.org/2000/svg"
   xmlns:sodipodi="http://sodipodi.sourceforge.net/DTD/sodipodi-0.dtd"
   xmlns:inkscape="http://www.inkscape.org/namespaces/inkscape"
   version="1.1"
   id="Layer_1"
   x="0px"
   y="0px"
   width="50px"
   height="100px"
   viewBox="0 0 50 100"
   enable-background="new 0 0 50 100"
   xml:space="preserve"
   inkscape:version="0.48.4 r9939"
   sodipodi:docname="be.svg"><metadata
     id="metadata259"><rdf:RDF><cc:Work
         rdf:about=""><dc:format>image/svg+xml</dc:format><dc:type
           rdf:resource="http://purl.org/dc/dcmitype/StillImage" /></cc:Work></rdf:RDF></metadata><defs
     id="defs257" /><sodipodi:namedview
     pagecolor="#ffffff"
     bordercolor="#666666"
     borderopacity="1"
     objecttolerance="10"
     gridtolerance="10"
     guidetolerance="10"
     inkscape:pageopacity="0"
     inkscape:pageshadow="2"
     inkscape:window-width="1280"
     inkscape:window-height="748"
     id="namedview255"
     showgrid="false"
     inkscape:zoom="4.72"
     inkscape:cx="-22.577898"
     inkscape:cy="66.180817"
     inkscape:window-x="0"
     inkscape:window-y="30"
     inkscape:window-maximized="1"
     inkscape:current-layer="Layer_1" /><rect
     x="0.002"
     fill="#0D426A"
     width="49.981"
     height="50"
     id="rect239"
     style="fill:#efefef;fill-opacity:1" /><path
     d="M22.734,23.208c0,0,3.189-0.238,3.189-3.98c0-3.742-2.612-5.568-5.919-5.568h-6.087H13.74H9.12v20.916h4.62  h0.178h6.087c0,0,6.646,0.208,6.646-6.176C26.65,28.4,26.936,23.208,22.734,23.208z M19.223,17.376h0.782c0,0,1.476,0,1.476,2.177  c0,2.175-0.865,2.489-1.854,2.489h-5.709v-4.667H19.223z M19.697,30.859h-5.779v-5.588h6.087c0,0,2.207-0.031,2.207,2.869  C22.212,30.587,20.563,30.841,19.697,30.859z"
     id="path241"
     style="fill:#323132;fill-opacity:1"
     fill="#FFFFFF" /><path
     d="M35.509,18.983c-8.038,0-8.033,8.034-8.033,8.034s-0.555,7.997,8.033,7.997c0,0,7.154,0.407,7.154-5.565  h-3.676c0,0,0.117,2.251-3.356,2.251c0,0-3.68,0.245-3.68-3.64h10.837C42.788,28.061,43.976,18.983,35.509,18.983z M31.908,25.271  c0,0,0.453-3.225,3.685-3.225s3.186,3.225,3.186,3.225H31.908z"
     id="path243"
     style="fill:#323132;fill-opacity:1"
     fill="#FFFFFF" /><rect
     x="31.01"
     y="14.892"
     width="8.631"
     height="2.573"
     id="rect245"
     style="fill:#323132;fill-opacity:1"
     fill="#FFFFFF" /><rect
     x="0.002"
     y="50"
     width="49.981"
     height="50"
     id="rect247" /><path
     fill="#FFFFFF"
     d="M22.734,72.557c0,0,3.189-0.238,3.189-3.979c0-3.743-2.612-5.568-5.919-5.568h-6.087H13.74H9.12v20.916h4.62  h0.178h6.087c0,0,6.646,0.208,6.646-6.177C26.65,77.748,26.936,72.557,22.734,72.557z M19.223,66.726h0.782c0,0,1.476,0,1.476,2.177  c0,2.175-0.865,2.489-1.854,2.489h-5.709v-4.666H19.223z M19.697,80.208h-5.779v-5.589h6.087c0,0,2.207-0.03,2.207,2.869  C22.212,79.936,20.563,80.189,19.697,80.208z"
     id="path249" /><path
     fill="#FFFFFF"
     d="M35.509,68.332c-8.038,0-8.033,8.034-8.033,8.034s-0.555,7.996,8.033,7.996c0,0,7.154,0.407,7.154-5.565  h-3.676c0,0,0.117,2.251-3.356,2.251c0,0-3.68,0.245-3.68-3.64h10.837C42.788,77.408,43.976,68.332,35.509,68.332z M31.908,74.619  c0,0,0.453-3.225,3.685-3.225s3.186,3.225,3.186,3.225H31.908z"
     id="path251" /><rect
     x="31.01"
     y="64.24"
     fill="#FFFFFF"
     width="8.631"
     height="2.572"
     id="rect253" /></svg>