<svg
   xmlns:dc="http://purl.org/dc/elements/1.1/"
   xmlns:cc="http://creativecommons.org/ns#"
   xmlns:rdf="http://www.w3.org/1999/02/22-rdf-syntax-ns#"
   xmlns:svg="http://www.w3.org/2000/svg"
   xmlns="http://www.w3.org/2000/svg"
   xmlns:sodipodi="http://sodipodi.sourceforge.net/DTD/sodipodi-0.dtd"
   xmlns:inkscape="http://www.inkscape.org/namespaces/inkscape"
   version="1.1"
   id="Layer_1"
   x="0px"
   y="0px"
   width="50px"
   height="100px"
   viewBox="0 0 50 100"
   enable-background="new 0 0 50 100"
   xml:space="preserve"
   inkscape:version="0.48.4 r9939"
   sodipodi:docname="in.svg"><metadata
     id="metadata259"><rdf:RDF><cc:Work
         rdf:about=""><dc:format>image/svg+xml</dc:format><dc:type
           rdf:resource="http://purl.org/dc/dcmitype/StillImage" /></cc:Work></rdf:RDF></metadata><defs
     id="defs257" /><sodipodi:namedview
     pagecolor="#ffffff"
     bordercolor="#666666"
     borderopacity="1"
     objecttolerance="10"
     gridtolerance="10"
     guidetolerance="10"
     inkscape:pageopacity="0"
     inkscape:pageshadow="2"
     inkscape:window-width="1280"
     inkscape:window-height="748"
     id="namedview255"
     showgrid="false"
     inkscape:zoom="4.72"
     inkscape:cx="-27.680734"
     inkscape:cy="48.783606"
     inkscape:window-x="0"
     inkscape:window-y="30"
     inkscape:window-maximized="1"
     inkscape:current-layer="Layer_1" /><g
     id="g127"><rect
       y="50"
       fill="#017BB6"
       width="50"
       height="50"
       id="rect129" /><path
       fill="#FFFFFF"
       d="M8.555,69.303h7.055v22.662H8.555V69.303z M12.085,58.036c2.255,0,4.084,1.831,4.084,4.083   c0,2.254-1.829,4.086-4.084,4.086c-2.264,0-4.089-1.832-4.089-4.086C7.996,59.867,9.821,58.036,12.085,58.036"
       id="path131" /><path
       fill="#FFFFFF"
       d="M20.033,69.303h6.755V72.4h0.096c0.94-1.783,3.24-3.661,6.669-3.661c7.131,0,8.451,4.691,8.451,10.796   v12.43h-7.041V80.948c0-2.632-0.053-6.014-3.664-6.014c-3.668,0-4.227,2.863-4.227,5.818v11.212h-7.039V69.303z"
       id="path133" /></g><rect
     fill="#0D426A"
     width="50"
     height="50"
     id="rect135"
     style="fill:#efefef;fill-opacity:1" /><path
     fill="#FFFFFF"
     d="M8.555,19.302h7.055v22.663H8.555V19.302z M12.085,8.035c2.255,0,4.084,1.832,4.084,4.084  c0,2.253-1.829,4.084-4.084,4.084c-2.264,0-4.089-1.832-4.089-4.084C7.996,9.867,9.821,8.035,12.085,8.035"
     id="path137"
     style="fill:#323132;fill-opacity:1" /><path
     fill="#FFFFFF"
     d="M20.033,19.302h6.755v3.098h0.096c0.94-1.783,3.24-3.661,6.669-3.661c7.131,0,8.451,4.691,8.451,10.795  v12.431h-7.041V30.947c0-2.631-0.053-6.012-3.664-6.012c-3.668,0-4.227,2.863-4.227,5.817v11.212h-7.039V19.302z"
     id="path139"
     style="fill:#323132;fill-opacity:1" /></svg>