<svg
   xmlns:dc="http://purl.org/dc/elements/1.1/"
   xmlns:cc="http://creativecommons.org/ns#"
   xmlns:rdf="http://www.w3.org/1999/02/22-rdf-syntax-ns#"
   xmlns:svg="http://www.w3.org/2000/svg"
   xmlns="http://www.w3.org/2000/svg"
   xmlns:sodipodi="http://sodipodi.sourceforge.net/DTD/sodipodi-0.dtd"
   xmlns:inkscape="http://www.inkscape.org/namespaces/inkscape"
   version="1.1"
   id="Layer_1"
   x="0px"
   y="0px"
   width="50px"
   height="100px"
   viewBox="0 0 50 100"
   enable-background="new 0 0 50 100"
   xml:space="preserve"
   inkscape:version="0.48.4 r9939"
   sodipodi:docname="tw.svg"><metadata
     id="metadata17"><rdf:RDF><cc:Work
         rdf:about=""><dc:format>image/svg+xml</dc:format><dc:type
           rdf:resource="http://purl.org/dc/dcmitype/StillImage" /></cc:Work></rdf:RDF></metadata><defs
     id="defs15" /><sodipodi:namedview
     pagecolor="#ffffff"
     bordercolor="#666666"
     borderopacity="1"
     objecttolerance="10"
     gridtolerance="10"
     guidetolerance="10"
     inkscape:pageopacity="0"
     inkscape:pageshadow="2"
     inkscape:window-width="1280"
     inkscape:window-height="748"
     id="namedview13"
     showgrid="false"
     inkscape:zoom="2.36"
     inkscape:cx="-124.57627"
     inkscape:cy="50"
     inkscape:window-x="0"
     inkscape:window-y="30"
     inkscape:window-maximized="1"
     inkscape:current-layer="Layer_1" /><g
     id="g3"><rect
       y="49.999"
       fill="#2AA8E0"
       width="50"
       height="50.001"
       id="rect5" /><path
       fill="#FFFFFF"
       d="M41.664,64.66c-1.226,0.546-2.544,0.913-3.926,1.077c1.411-0.846,2.496-2.185,3.007-3.782   c-1.32,0.784-2.783,1.353-4.342,1.66c-1.248-1.33-3.026-2.161-4.992-2.161c-3.777,0-6.841,3.063-6.841,6.84   c0,0.536,0.063,1.057,0.179,1.558c-5.684-0.284-10.723-3.007-14.097-7.146c-0.588,1.013-0.925,2.187-0.925,3.439   c0,2.371,1.206,4.467,3.041,5.692c-1.121-0.034-2.175-0.345-3.097-0.855v0.086c0,3.313,2.357,6.077,5.485,6.705   c-0.574,0.156-1.18,0.241-1.803,0.241c-0.44,0-0.868-0.044-1.286-0.123c0.871,2.716,3.396,4.692,6.387,4.75   c-2.338,1.833-5.287,2.926-8.493,2.926c-0.55,0-1.096-0.033-1.63-0.094c3.026,1.938,6.622,3.069,10.485,3.069   c12.577,0,19.456-10.418,19.456-19.455c0-0.295-0.009-0.592-0.019-0.888C39.587,67.237,40.746,66.034,41.664,64.66z"
       id="path7" /></g><rect
     fill="#0D426A"
     width="50"
     height="50"
     id="rect9"
     style="fill:#efefef;fill-opacity:1" /><path
     fill="#FFFFFF"
     d="M41.664,14.662c-1.226,0.544-2.544,0.912-3.926,1.077c1.411-0.846,2.496-2.185,3.007-3.784  c-1.32,0.785-2.783,1.354-4.342,1.661c-1.248-1.331-3.026-2.161-4.992-2.161c-3.777,0-6.841,3.063-6.841,6.839  c0,0.537,0.063,1.057,0.179,1.558c-5.684-0.284-10.723-3.007-14.097-7.146c-0.588,1.012-0.925,2.186-0.925,3.439  c0,2.371,1.206,4.467,3.041,5.693c-1.121-0.035-2.175-0.345-3.097-0.856v0.086c0,3.313,2.357,6.077,5.485,6.706  c-0.574,0.155-1.18,0.241-1.803,0.241c-0.44,0-0.868-0.043-1.286-0.124c0.871,2.717,3.396,4.693,6.387,4.75  c-2.338,1.833-5.287,2.927-8.493,2.927c-0.55,0-1.096-0.034-1.63-0.095c3.026,1.938,6.622,3.07,10.485,3.07  c12.577,0,19.456-10.418,19.456-19.456c0-0.295-0.009-0.591-0.019-0.887C39.587,17.239,40.746,16.034,41.664,14.662z"
     id="path11"
     style="fill:#323132;fill-opacity:1" /></svg>